<?xml version="1.0" encoding="UTF-8"?>
<svg xmlns="http://www.w3.org/2000/svg" width="330" height="29" viewBox="0 0 330 29" fill="none">
  <path d="M50.7076 0.786621H33.1145C30.1168 0.786621 27.4992 2.6632 26.7564 5.34344V5.35976L20.4514 28.409H31.9738L34.3525 19.7278C34.5382 19.0547 35.1926 18.5856 35.9443 18.5856H49.16C52.1666 18.5856 54.793 16.7008 55.527 14.0083L57.0833 8.32557C58.1224 4.49898 54.9875 0.786621 50.7076 0.786621ZM42.7047 14.0083H36.8905C36.382 14.0083 36.0062 13.5678 36.1344 13.1108L38.1019 5.9105C38.1904 5.58822 38.4999 5.36384 38.8624 5.36384H44.2522C45.3222 5.36384 46.1048 6.29397 45.8439 7.25266L44.3008 12.8661C44.1151 13.5392 43.4608 14.0083 42.7091 14.0083M70.1797 23.8359C69.4458 26.5284 66.8194 28.4131 63.8128 28.4131H43.3193L44.6501 23.5422C44.8358 22.8691 45.4902 22.3958 46.2419 22.3958H57.7996C58.5513 22.3958 59.2056 21.9226 59.3913 21.2495L64.6617 1.93297C64.8386 1.25985 65.493 0.786621 66.2446 0.786621H74.3669C75.4369 0.786621 76.2195 1.71267 75.9586 2.67136L70.1709 23.8359H70.1797ZM318.932 28.4131H295.038L296.374 23.5381C296.559 22.865 297.214 22.3958 297.965 22.3958H313.171C313.927 22.3958 314.581 21.9226 314.762 21.2454L315.364 19.0098C315.62 18.0552 314.838 17.1292 313.772 17.1292H306.543C302.267 17.1292 299.128 13.4168 300.176 9.58614L301.33 5.36384C302.068 2.67544 304.69 0.786621 307.697 0.786621H327.691C328.761 0.786621 329.543 1.71675 329.283 2.67136L328.465 5.65757C328.279 6.33069 327.624 6.79983 326.873 6.79983H313.339C312.583 6.79983 311.928 7.27306 311.747 7.95026L311.314 9.56983C311.057 10.5244 311.84 11.4505 312.905 11.4505H320.258C324.534 11.4505 327.669 15.1628 326.625 18.9894L325.303 23.8318C324.569 26.5243 321.943 28.409 318.936 28.409M288.839 17.3046L291.819 28.409H279.024L275.898 16.9538C275.809 16.6356 275.5 16.4071 275.142 16.4071H273.881C273.523 16.4071 273.209 16.6315 273.125 16.9538L270.017 28.405H258.508L265.105 4.26645C265.649 2.22261 267.647 0.786621 269.938 0.786621H288.976C293.256 0.786621 296.391 4.50306 295.343 8.32965L293.756 14.1266C293.389 15.4729 292.076 16.4153 290.573 16.4153H289.587C289.078 16.4153 288.707 16.8558 288.826 17.3087M282.57 5.36384H276.884C276.525 5.36384 276.212 5.58822 276.123 5.9105L274.766 10.9446C274.642 11.3975 275.018 11.838 275.526 11.838H281.623C282.375 11.838 283.029 11.3689 283.215 10.6958L284.161 7.24858C284.422 6.28989 283.64 5.36384 282.57 5.36384ZM139.637 17.3087L142.617 28.4131H129.821L126.695 16.9578C126.607 16.6396 126.297 16.4112 125.939 16.4112H124.679C124.321 16.4112 124.007 16.6356 123.923 16.9578L120.814 28.409H109.305L115.902 4.27053C116.459 2.22261 118.458 0.786621 120.748 0.786621H139.787C144.067 0.786621 147.202 4.50306 146.154 8.32965L144.567 14.1266C144.2 15.4729 142.886 16.4153 141.383 16.4153H140.397C139.889 16.4153 139.517 16.8558 139.637 17.3087ZM133.38 5.36384H127.694C127.336 5.36384 127.022 5.58822 126.934 5.9105L125.576 10.9446C125.453 11.3975 125.828 11.838 126.337 11.838H132.434C133.186 11.838 133.84 11.3689 134.026 10.6958L134.972 7.24858C135.233 6.28989 134.45 5.36384 133.38 5.36384ZM203.567 2.67544L196.532 28.4131H185.023L192.265 1.93297C192.451 1.25985 193.106 0.790701 193.857 0.790701H201.979C203.049 0.790701 203.832 1.72083 203.571 2.67544M216.699 0.786621C217.769 0.786621 218.551 1.71675 218.29 2.67136L213.418 20.5111C213.157 21.4657 213.94 22.3958 215.01 22.3958H225.44C226.51 22.3958 227.292 23.326 227.032 24.2806L225.904 28.409H208.2C203.925 28.409 200.786 24.6967 201.834 20.8701L207.011 1.92889C207.197 1.25577 207.851 0.786621 208.603 0.786621H216.703M255.254 28.409H229.145L236.379 1.92889C236.564 1.25577 237.219 0.786621 237.97 0.786621H260.71C261.784 0.786621 262.567 1.72083 262.302 2.67952L261.466 5.66165C261.28 6.33069 260.626 6.79575 259.879 6.79575H247.786C247.034 6.79983 246.38 7.27306 246.194 7.94618L245.646 9.94922C245.385 10.9038 246.168 11.834 247.238 11.834H255.833C256.907 11.834 257.69 12.7682 257.425 13.7269L256.996 15.273C256.81 15.942 256.156 16.4112 255.404 16.4112H245.164C244.412 16.4112 243.754 16.8844 243.572 17.5575L242.768 20.5111C242.507 21.4657 243.289 22.3958 244.359 22.3958H254.79C255.86 22.3958 256.642 23.326 256.381 24.2806L255.254 28.409ZM113.042 2.67544L112.215 5.66165C112.029 6.33069 111.375 6.79983 110.623 6.79983H104.243C103.491 6.79983 102.832 7.27306 102.651 7.94618L97.0756 28.409H85.5665L90.943 8.68457C91.2038 7.72996 90.4212 6.79983 89.3512 6.79983H84.0366C82.9666 6.79983 82.184 5.8697 82.4449 4.91102L83.254 1.97784C83.4486 1.28024 84.1383 0.786621 84.9254 0.786621H111.454C112.524 0.786621 113.311 1.71675 113.046 2.67544M181.8 28.409H170.304V22.1347C170.304 21.4616 169.769 20.9843 169.017 20.9843H161.894C161.143 20.9843 160.36 21.4535 159.998 22.1266L156.575 28.409H145.875L158.379 5.36384C159.834 2.67136 162.964 0.786621 165.971 0.786621H176.658C179.673 0.786621 181.791 2.6836 181.791 5.38424V28.4131L181.8 28.409ZM170.295 15.5178L170.317 5.91866C170.317 5.18842 169.194 5.18842 168.801 5.91866L163.614 15.5178C163.367 15.9747 163.623 16.4153 164.132 16.4153H169.296C169.804 16.4153 170.295 15.9747 170.295 15.5218" fill="#111827"></path>
  <path d="M8.91588 28.409L16.4633 0.786621H22.2864L14.739 28.409H8.91588ZM6.86874 28.409L14.4162 0.786621H11.5024L3.95499 28.409H6.86874ZM7.98737 0.786621L0.444336 28.4131H1.899L9.44204 0.786621H7.98737Z" fill="#B62025"></path>
</svg>

